<svg width="80" height="80" viewBox="0 0 80 80" fill="none" xmlns="http://www.w3.org/2000/svg">
<path d="M40 0C17.9079 0 0 17.9079 0 40C0 62.092 17.9079 80 40 80C62.092 80 80 62.092 80 40C80 17.9079 62.092 0 40 0ZM77.3891 40C77.3891 60.6527 60.6527 77.3891 40 77.3891C19.3473 77.3891 2.61088 60.6527 2.61088 40C2.61088 19.3473 19.3473 2.61088 40 2.61088C60.6527 2.61088 77.3891 19.3473 77.3891 40Z" fill="#BDBDBD"/>
<path d="M59.3823 23.032C59.9179 23.6011 60.7212 24.5718 61.1564 25.1408L69.2568 19.986C68.8551 19.4504 68.2191 18.6471 67.717 18.0781L62.5957 21.4588L62.261 21.7601L62.5287 21.3919L64.8049 16.873L63.1982 15.2663L58.6794 17.5425L58.3112 17.8103L58.6124 17.4755L61.9932 12.3542C61.3907 11.8521 60.8216 11.3835 60.0852 10.8145L54.9304 18.9149C55.5664 19.417 56.4367 20.1534 56.9723 20.6555L61.8258 18.145L62.1271 17.9107L61.8928 18.2119L59.3823 23.032Z" fill="#BDBDBD"/>
<path d="M41.0058 12.7894L43.215 7.83538L43.3489 7.40024L43.3154 7.86886L43.5497 14.4965C44.3196 14.5634 45.1229 14.6638 45.9263 14.7977L45.5581 4.99019C44.4535 4.8563 43.3489 4.78936 42.2443 4.72241L40.0685 10.145L40.0016 10.5467L39.9346 10.145L37.7589 4.72241C36.6543 4.75588 35.5497 4.8563 34.4451 4.99019L34.0769 14.7977C34.8803 14.6638 35.6836 14.5634 36.4535 14.4965L36.6878 7.86886L36.6543 7.40024L36.7882 7.83538L38.9974 12.7894H41.0058Z" fill="#BDBDBD"/>
<path d="M23.0977 20.5885C24.3697 19.2496 25.1061 17.6764 23.8341 16.2036C23.1312 15.4003 21.9597 15.2329 20.989 15.6346L20.8885 15.668L20.922 15.5676C21.0559 15.1994 21.1563 13.9609 20.1187 13.1241C19.6166 12.7224 18.9806 12.5551 18.3446 12.622C17.1396 12.7559 16.2358 13.5593 13.6919 16.371C12.922 17.2078 11.8174 18.5467 11.1479 19.417L18.0768 25.9777C20.3864 23.4337 21.2902 22.4965 23.0977 20.5885ZM14.0936 18.9818C15.4994 17.2747 16.9722 15.735 17.6417 15.1325C17.8425 14.9316 18.0768 14.7308 18.3781 14.6639C18.8467 14.53 19.3153 14.8647 19.4157 15.3333C19.5161 15.8019 19.2149 16.2371 18.9136 16.6053C18.1438 17.4421 15.4325 20.2873 15.4325 20.2873L14.0936 18.9818ZM16.8049 21.5593C16.8049 21.5593 19.4492 18.781 20.286 17.8772C20.6208 17.509 20.8551 17.3082 21.0894 17.2078C21.3906 17.0739 21.7254 17.0404 22.0266 17.2413C22.3279 17.4421 22.4618 17.7768 22.3948 18.1116C22.2944 18.5132 21.9931 18.8814 21.7254 19.1827C21.3572 19.5844 18.2442 22.8982 18.2442 22.8982L16.8049 21.5593Z" fill="#BDBDBD"/>
<path d="M40 16.3013V40H16.3013C16.3013 26.8787 26.8787 16.3013 40 16.3013Z" fill="#BDBDBD"/>
<path d="M63.6987 40C63.6987 53.1213 53.0879 63.6987 40 63.6987V40H63.6987Z" fill="#BDBDBD"/>
</svg>
