<svg width="133" height="60" viewBox="0 0 133 60" fill="none" xmlns="http://www.w3.org/2000/svg">
<path d="M118.879 11.6034C102.861 3.52121 84.7996 0 66.9155 0C48.8812 0 30.0803 2.81376 14.1208 11.6034C7.43029 15.3068 0 21.7865 0 30.0456C0 38.2135 7.31235 44.9933 14.0672 48.3966C30.1125 56.5056 48.2057 60 66.1167 60C84.1456 60 102.952 57.1862 118.906 48.4288C125.538 44.7896 133 38.3368 133 30.1045C133 21.8455 125.747 15.0389 118.879 11.6034ZM42.9305 45.615L32.0317 32.5002H31.7047V45.615H23.2344V16.3734H21.3688V14.4172H31.7047V25.3988H32.0317L40.9738 14.4172H50.5056L38.6632 28.979L52.4034 45.615H42.9305ZM70.0516 45.615H61.5867V16.4913H59.7532V14.3314H70.057V45.615H70.0516ZM102.802 45.615L95.8432 25.222L88.8579 45.615H79.6209L89.7746 16.368H88.1181V14.4439H101.177L111.808 45.615H102.802Z" fill="#BDBDBD"/>
</svg>
