<svg width="101" height="80" viewBox="0 0 101 80" fill="none" xmlns="http://www.w3.org/2000/svg">
<path d="M49.9991 74.353C31.2138 74.353 15.6331 58.7785 15.6331 40.0006C15.6331 39.0242 15.6779 38.0567 15.7606 37.0994L44.5156 38.8929L32.0784 47.482C31.91 47.6005 31.799 47.7955 31.799 48.0161C31.799 48.3755 32.0911 48.6674 32.4508 48.6674H83.2315C79.3267 63.3382 65.7966 74.353 49.9991 74.353ZM49.9991 5.647C68.7845 5.647 84.3652 21.2228 84.3652 40.0006C84.3652 40.9694 84.3225 41.9306 84.2403 42.8815L55.5132 41.0561L67.9786 32.518C68.1481 32.3995 68.2577 32.2045 68.2577 31.9839C68.2577 31.6245 67.967 31.3326 67.6087 31.3326H16.7667C20.6728 16.6618 34.2015 5.647 49.9991 5.647ZM99.2866 43.8375L89.8844 43.2397C89.9701 42.1715 90.0157 41.0905 90.0157 40.0006C90.0157 17.9085 72.1001 0 49.9991 0C30.8771 0 14.8895 13.4088 10.9287 31.3326H3.54513C3.06183 31.3326 2.62948 31.562 2.35536 31.9189L0.158079 34.9515C0.0591436 35.079 0 35.2383 0 35.4117C0 35.8272 0.335446 36.1625 0.75118 36.1625L10.1164 36.7463C10.0297 37.8196 9.98378 38.9044 9.98378 40.0006C9.98378 62.0915 27.8994 80 49.9991 80C69.1211 80 85.1086 66.5912 89.0708 48.6674H96.4913C96.9759 48.6674 97.4069 48.438 97.6812 48.0811L99.8796 45.0485C99.9786 44.921 100.038 44.7617 100.038 44.5883C100.038 44.1728 99.7011 43.8375 99.2866 43.8375Z" fill="#BDBDBD"/>
</svg>
